<svg width="115" height="15" viewBox="0 0 115 15" fill="none" xmlns="http://www.w3.org/2000/svg">
<g filter="url(#filter0_i_22_734)">
<path d="M5.74213 14.2051C4.47066 14.2051 2.89841 14.082 1.02538 13.8359V11.3955C3.34958 11.751 4.9355 11.9287 5.78315 11.9287C7.56048 11.9287 8.44914 11.4707 8.44914 10.5547V9.6934C8.44914 9.2559 8.31926 8.92095 8.05949 8.68853C7.8134 8.45611 7.36224 8.3399 6.70599 8.3399H5.14741C2.22166 8.3399 0.758782 7.1778 0.758782 4.8536V3.86924C0.758782 2.70714 1.24413 1.85265 2.21482 1.30578C3.18552 0.758914 4.72359 0.485479 6.82904 0.485479C7.92278 0.485479 9.31046 0.574345 10.9921 0.752078V3.13096C8.92765 2.88487 7.50579 2.76182 6.7265 2.76182C5.64643 2.76182 4.92183 2.85069 4.55269 3.02842C4.15621 3.21983 3.95797 3.52061 3.95797 3.93076V4.87411C3.95797 5.57137 4.54586 5.92 5.72163 5.92H7.32122C8.83878 5.92 9.93936 6.20027 10.6229 6.76081C11.3065 7.32135 11.6483 8.17584 11.6483 9.32426V10.2061C11.6483 11.792 11.0809 12.8652 9.94619 13.4258C9.39933 13.7129 8.79093 13.9111 8.12102 14.0205C7.46477 14.1436 6.67181 14.2051 5.74213 14.2051ZM17.4201 8.66802L12.6008 0.690555H16.2307L19.0402 5.89949L21.8292 0.690555H25.4796L20.6193 8.627V14H17.4201V8.66802ZM27.0701 0.690555H30.2692V11.7237H36.8112V14H27.0701V0.690555ZM37.5305 0.690555H40.7707L44.3391 11.334H44.4211L47.9894 0.690555H51.1476L46.2258 14H42.3088L37.5305 0.690555ZM52.5844 0.690555H62.7357V2.9669H55.7836V6.02254H62.0589V8.29888H55.7836V11.7237H62.9408V14H52.5844V0.690555ZM69.4079 14.2051C68.1364 14.2051 66.5642 14.082 64.6911 13.8359V11.3955C67.0153 11.751 68.6012 11.9287 69.4489 11.9287C71.2262 11.9287 72.1149 11.4707 72.1149 10.5547V9.6934C72.1149 9.2559 71.985 8.92095 71.7252 8.68853C71.4791 8.45611 71.028 8.3399 70.3717 8.3399H68.8132C65.8874 8.3399 64.4245 7.1778 64.4245 4.8536V3.86924C64.4245 2.70714 64.9099 1.85265 65.8806 1.30578C66.8513 0.758914 68.3893 0.485479 70.4948 0.485479C71.5885 0.485479 72.9762 0.574345 74.6578 0.752078V3.13096C72.5934 2.88487 71.1715 2.76182 70.3922 2.76182C69.3122 2.76182 68.5876 2.85069 68.2184 3.02842C67.822 3.21983 67.6237 3.52061 67.6237 3.93076V4.87411C67.6237 5.57137 68.2116 5.92 69.3874 5.92H70.987C72.5045 5.92 73.6051 6.20027 74.2887 6.76081C74.9723 7.32135 75.3141 8.17584 75.3141 9.32426V10.2061C75.3141 11.792 74.7467 12.8652 73.6119 13.4258C73.0651 13.7129 72.4567 13.9111 71.7868 14.0205C71.1305 14.1436 70.3376 14.2051 69.4079 14.2051ZM80.6142 2.9669H76.5126V0.690555H87.8944V2.9669H83.8134V14H80.6142V2.9669ZM89.7344 0.690555H99.8857V2.9669H92.9336V6.02254H99.209V8.29888H92.9336V11.7237H100.091V14H89.7344V0.690555ZM102.251 0.690555H108.24C110.017 0.690555 111.302 0.909303 112.095 1.3468C112.888 1.77062 113.284 2.48839 113.284 3.5001V5.83797C113.284 6.61726 113.004 7.23249 112.444 7.68365C111.897 8.12115 111.165 8.40142 110.249 8.52447L114.105 14H110.413L106.927 8.77056H105.45V14H102.251V0.690555ZM108.199 6.65827C108.95 6.65827 109.463 6.56257 109.737 6.37117C110.01 6.16609 110.147 5.77644 110.147 5.20223V4.25888C110.147 3.7667 109.996 3.43174 109.696 3.25401C109.408 3.0626 108.909 2.9669 108.199 2.9669H105.45V6.65827H108.199Z" fill="#8205FF" fill-opacity="0.95"/>
</g>
<defs>
<filter id="filter0_i_22_734" x="0.758789" y="0.485596" width="113.346" height="17.7195" filterUnits="userSpaceOnUse" color-interpolation-filters="sRGB">
<feFlood flood-opacity="0" result="BackgroundImageFix"/>
<feBlend mode="normal" in="SourceGraphic" in2="BackgroundImageFix" result="shape"/>
<feColorMatrix in="SourceAlpha" type="matrix" values="0 0 0 0 0 0 0 0 0 0 0 0 0 0 0 0 0 0 127 0" result="hardAlpha"/>
<feOffset dy="4"/>
<feGaussianBlur stdDeviation="2"/>
<feComposite in2="hardAlpha" operator="arithmetic" k2="-1" k3="1"/>
<feColorMatrix type="matrix" values="0 0 0 0 0 0 0 0 0 0 0 0 0 0 0 0 0 0 0.25 0"/>
<feBlend mode="normal" in2="shape" result="effect1_innerShadow_22_734"/>
</filter>
</defs>
</svg>
